<?xml version="1.0" encoding="UTF-8"?>
<svg width="16px" height="22px" viewBox="0 0 16 22" version="1.1" xmlns="http://www.w3.org/2000/svg" xmlns:xlink="http://www.w3.org/1999/xlink">
    <!-- Generator: Sketch 52.3 (67297) - http://www.bohemiancoding.com/sketch -->
    <title>login-icon</title>
    <desc>Created with Sketch.</desc>
    <g id="Symbols" stroke="none" stroke-width="1" fill="none" fill-rule="evenodd">
        <g id="Navigation" transform="translate(-1326.000000, -24.000000)">
            <g id="login">
                <g transform="translate(1327.000000, 21.000000)">
                    <g id="login-icon">
                        <g transform="translate(0.000000, 4.000000)">
                            <rect id="Rectangle-16" stroke="#1BAAA0" stroke-width="2" x="4" y="0" width="6" height="15" rx="3"></rect>
                            <path d="M2.15975459,7 L11.8402454,7 C12.9448149,7 13.8402454,7.8954305 13.8402454,9 C13.8402454,9.05118755 13.8382803,9.10235623 13.8343544,9.153393 L13.4261401,14.460179 C13.1856798,17.586162 10.579031,20 7.44381316,20 L6.55618684,20 C3.42096899,20 0.814320155,17.586162 0.573859923,14.460179 L0.165645615,9.153393 C0.0809290018,8.05207702 0.905045614,7.09060764 2.00636159,7.00589103 C2.05739836,7.00196512 2.10856704,7 2.15975459,7 Z" id="Rectangle" stroke="#1BAAA0" stroke-width="2" fill="#FFFFFF"></path>
                            <g id="Group-11" transform="translate(5.000000, 10.000000)">
                                <circle id="Oval" fill="#1BAAA0" cx="2" cy="2" r="2"></circle>
                                <path d="M2,1.5 L2,5.5" id="Line" stroke="#1BAAA0" stroke-width="2" stroke-linecap="round"></path>
                            </g>
                        </g>
                    </g>
                </g>
            </g>
        </g>
    </g>
</svg>